<svg width="126" height="20" viewBox="0 0 126 20" fill="none" xmlns="http://www.w3.org/2000/svg">
<path d="M0 19.7326V0.26738H6.76635C9.11024 0.26738 10.8881 0.721925 12.0998 1.63102C13.3116 2.53119 13.9174 3.85472 13.9174 5.6016C13.9174 6.55526 13.6742 7.3975 13.1877 8.12834C12.7013 8.85027 12.0246 9.38057 11.1578 9.71925C12.1485 9.96881 12.9268 10.4724 13.4929 11.2299C14.0678 11.9875 14.3553 12.9144 14.3553 14.0107C14.3553 15.8824 13.7627 17.2995 12.5774 18.262C11.3922 19.2246 9.70285 19.7148 7.50932 19.7326H0ZM3.9802 11.2567V16.5107H7.38991C8.32747 16.5107 9.05718 16.2879 9.57902 15.8422C10.1097 15.3877 10.3751 14.7638 10.3751 13.9706C10.3751 12.1881 9.45962 11.2834 7.62872 11.2567H3.9802ZM3.9802 8.42246H6.92556C8.93335 8.38681 9.93724 7.58021 9.93724 6.00267C9.93724 5.12032 9.68074 4.48752 9.16774 4.10428C8.66358 3.71212 7.86311 3.51604 6.76635 3.51604H3.9802V8.42246Z" fill="url(#paint0_linear)"/>
<path d="M21.586 19.7326H17.6058V0.26738H21.586V19.7326Z" fill="url(#paint1_linear)"/>
<path d="M40.5715 17.2727C39.8551 18.1373 38.8424 18.8102 37.5333 19.2914C36.2243 19.7638 34.7737 20 33.1816 20C31.51 20 30.0417 19.6346 28.7769 18.9037C27.5209 18.164 26.548 17.0945 25.8581 15.6952C25.177 14.2959 24.8276 12.6515 24.8099 10.762V9.4385C24.8099 7.49554 25.1328 5.81551 25.7785 4.3984C26.433 2.97237 27.3705 1.88503 28.5911 1.13636C29.8206 0.378788 31.2579 0 32.903 0C35.1939 0 36.9849 0.552585 38.2763 1.65775C39.5676 2.75401 40.3327 4.35383 40.5715 6.45722H36.6975C36.5206 5.34314 36.127 4.52763 35.5167 4.01069C34.9152 3.49376 34.0838 3.23529 33.0224 3.23529C31.6692 3.23529 30.6387 3.74777 29.9311 4.77273C29.2235 5.79768 28.8653 7.32175 28.8565 9.34492V10.5882C28.8565 12.6292 29.2412 14.1711 30.0107 15.2139C30.7802 16.2567 31.908 16.7781 33.3939 16.7781C34.8887 16.7781 35.9545 16.4572 36.5913 15.8155V12.4599H32.9694V9.50535H40.5715V17.2727Z" fill="url(#paint2_linear)"/>
<path d="M47.0924 15.3543L47.59 17.8721L48.1981 15.4657L51.6918 3.51159H52.919L56.3685 15.4657L56.9656 17.8944L57.4963 15.3543L60.404 3.51159H61.7971L57.6732 19.7326H56.3685L52.72 7.04323L52.3109 5.43895L51.9129 7.04323L48.1759 19.7326H46.8713L42.7584 3.51159H44.1515L47.0924 15.3543Z" fill="url(#paint3_linear)"/>
<path d="M72.621 15.1872H65.3129L63.6545 19.7326H62.2283L68.3202 3.51159H69.6138L75.7057 19.7326H74.2905L72.621 15.1872ZM65.7331 14.0174H72.1898L68.9615 5.18271L65.7331 14.0174Z" fill="url(#paint4_linear)"/>
<path d="M79.4537 18.574H87.4031V19.7326H78.0828V3.51159H79.4537V18.574Z" fill="url(#paint5_linear)"/>
<path d="M91.3943 18.574H99.3437V19.7326H90.0234V3.51159H91.3943V18.574Z" fill="url(#paint6_linear)"/>
<path d="M110.853 11.9563H103.324V18.574H111.981V19.7326H101.964V3.51159H111.926V4.68137H103.324V10.7977H110.853V11.9563Z" fill="url(#paint7_linear)"/>
<path d="M126 4.68137H120.483V19.7326H119.123V4.68137H113.617V3.51159H126V4.68137Z" fill="url(#paint8_linear)"/>
<defs>
<linearGradient id="paint0_linear" x1="1.25366" y1="10.6061" x2="124.362" y2="10.6061" gradientUnits="userSpaceOnUse">
<stop stop-color="#F53491"/>
<stop offset="1" stop-color="#4F86B9"/>
</linearGradient>
<linearGradient id="paint1_linear" x1="1.25366" y1="10.6061" x2="124.362" y2="10.6061" gradientUnits="userSpaceOnUse">
<stop stop-color="#F53491"/>
<stop offset="1" stop-color="#4F86B9"/>
</linearGradient>
<linearGradient id="paint2_linear" x1="1.25366" y1="10.6061" x2="124.362" y2="10.6061" gradientUnits="userSpaceOnUse">
<stop stop-color="#F53491"/>
<stop offset="1" stop-color="#4F86B9"/>
</linearGradient>
<linearGradient id="paint3_linear" x1="1.25366" y1="10.6061" x2="124.362" y2="10.6061" gradientUnits="userSpaceOnUse">
<stop stop-color="#F53491"/>
<stop offset="1" stop-color="#4F86B9"/>
</linearGradient>
<linearGradient id="paint4_linear" x1="1.25366" y1="10.6061" x2="124.362" y2="10.6061" gradientUnits="userSpaceOnUse">
<stop stop-color="#F53491"/>
<stop offset="1" stop-color="#4F86B9"/>
</linearGradient>
<linearGradient id="paint5_linear" x1="1.25366" y1="10.6061" x2="124.362" y2="10.6061" gradientUnits="userSpaceOnUse">
<stop stop-color="#F53491"/>
<stop offset="1" stop-color="#4F86B9"/>
</linearGradient>
<linearGradient id="paint6_linear" x1="1.25366" y1="10.6061" x2="124.362" y2="10.6061" gradientUnits="userSpaceOnUse">
<stop stop-color="#F53491"/>
<stop offset="1" stop-color="#4F86B9"/>
</linearGradient>
<linearGradient id="paint7_linear" x1="1.25366" y1="10.6061" x2="124.362" y2="10.6061" gradientUnits="userSpaceOnUse">
<stop stop-color="#F53491"/>
<stop offset="1" stop-color="#4F86B9"/>
</linearGradient>
<linearGradient id="paint8_linear" x1="1.25366" y1="10.6061" x2="124.362" y2="10.6061" gradientUnits="userSpaceOnUse">
<stop stop-color="#F53491"/>
<stop offset="1" stop-color="#4F86B9"/>
</linearGradient>
</defs>
</svg>
